<?xml version="1.0" standalone="no"?>
<!DOCTYPE svg PUBLIC "-//W3C//DTD SVG 20010904//EN"
 "http://www.w3.org/TR/2001/REC-SVG-20010904/DTD/svg10.dtd">
<svg version="1.0" xmlns="http://www.w3.org/2000/svg"
 width="700.000000pt" height="700.000000pt" viewBox="0 0 700.000000 700.000000"
 preserveAspectRatio="xMidYMid meet">
<metadata>
Created by potrace 1.11, written by Peter Selinger 2001-2013
</metadata>
<g transform="translate(0.000000,700.000000) scale(0.100000,-0.100000)"
fill="#000000" stroke="none">
<path d="M0 3500 l0 -3500 3500 0 3500 0 0 3500 0 3500 -3500 0 -3500 0 0
-3500z m6120 2619 c3 -4 5 -1185 5 -2626 l0 -2618 -2618 0 c-1737 0 -2621 3
-2626 10 -6 8 -8 5240 -2 5240 478 4 5238 -2 5241 -6z"/>
<path d="M2224 4811 c-2 -2 -4 -594 -4 -1315 l0 -1311 308 -1 c169 0 309 3
312 8 8 11 4 870 -5 973 -4 50 -8 104 -10 120 -11 140 -17 202 -20 215 -5 19
-13 79 -20 158 -4 35 -8 71 -10 80 -1 9 -6 46 -10 82 -4 36 -9 69 -12 74 -3 5
0 7 7 4 8 -2 64 -155 126 -339 62 -184 121 -356 131 -384 10 -27 79 -213 153
-412 l135 -363 186 0 187 0 12 33 c7 17 16 41 20 52 51 120 404 1097 493 1365
8 24 20 46 26 48 6 2 9 -2 7 -10 -3 -7 -7 -40 -10 -73 -3 -33 -8 -71 -10 -85
-5 -30 -16 -117 -22 -180 -2 -25 -6 -61 -9 -80 -3 -19 -7 -62 -10 -95 -3 -33
-8 -87 -12 -120 -3 -33 -7 -85 -9 -115 -2 -50 -7 -870 -5 -930 l1 -25 313 0
312 0 3 1315 2 1315 -371 0 c-320 0 -373 -2 -380 -15 -6 -13 -77 -213 -245
-695 -25 -71 -54 -152 -64 -180 -58 -158 -75 -211 -136 -418 -37 -126 -72
-226 -78 -224 -9 3 -20 31 -31 81 -4 17 -32 112 -82 276 -17 55 -296 828 -313
865 -5 11 -32 84 -61 163 -28 78 -57 143 -63 143 -31 4 -728 4 -732 0z"/>
</g>
</svg>
